#!OML:ASF I:\Random Stuff\random\construction\7_22_03\Session 2\subj1.ASF
:FULLY-SPECIFIED
:DEGREES
826
root 6.46361 18.1322 4.75243 80.8708 82.4006 76.4375
lowerback 8.56285 2.15072 0.784367
upperback -0.538691 2.87936 -1.47827
thorax -5.24886 1.38372 -2.35209
lowerneck -20.6735 5.14719 5.26662
upperneck 18.0253 7.26143 -7.45375
head 9.58708 2.94257 -2.40367
rclavicle 3.37934e-015 8.74653e-015
rhumerus -32.2983 5.92318 -75.4988
rradius 46.8889
rwrist -12.0976
rhand -20.9627 17.4657
rfingers 7.12502
rthumb 5.41032 -12.4452
lclavicle 3.37934e-015 8.74653e-015
lhumerus -41.9293 8.03902 75.9137
lradius 42.6062
lwrist 57.1439
lhand -21.9981 65.8124
lfingers 7.12502
lthumb 4.41061 -95.7465
rfemur 0.74754 8.7535 20.0751
rtibia 4.77083e-015
rfoot -3.20773 -5.30946
rtoes -15.4457
lfemur -38.3047 -2.41035 -4.5722
ltibia 31.7697
lfoot 1.24475 8.83587
ltoes 13.9648
827
root 6.45866 18.1266 4.73734 81.1821 82.5059 76.7679
lowerback 8.64085 2.10591 0.90473
upperback -0.503226 2.83477 -1.42499
thorax -5.25453 1.35904 -2.36103
lowerneck -20.7702 5.06819 5.23269
upperneck 18.0278 7.18017 -7.54396
head 9.60247 2.89013 -2.44062
rclavicle -6.4605e-015 -9.54166e-015
rhumerus -32.2942 6.07168 -75.5223
rradius 46.8873
rwrist -12.1818
rhand -20.8614 17.4466
rfingers 7.12502
rthumb 5.50815 -12.4618
lclavicle -6.4605e-015 -9.54166e-015
lhumerus -41.8447 8.20399 75.8396
lradius 42.6038
lwrist 56.7399
lhand -21.2795 65.9196
lfingers 7.12502
lthumb 5.10449 -95.8381
rfemur 0.755685 8.76292 20.1192
rtibia 0
rfoot -3.18984 -5.42619
rtoes -15.6379
lfemur -37.9672 -1.56297 -4.88507
ltibia 32.6153
lfoot -2.83037 9.46238
ltoes 16.6741
828
root 6.45484 18.1208 4.72122 81.7802 82.6009 77.3391
lowerback 8.62366 2.05153 0.991091
upperback -0.45859 2.77419 -1.36312
thorax -5.19973 1.32851 -2.33509
lowerneck -20.9088 5.00549 5.23536
upperneck 18.0822 7.12361 -7.67736
head 9.64864 2.84518 -2.49469
rclavicle -3.57812e-014 0
rhumerus -32.243 6.20903 -75.5196
rradius 46.8459
rwrist -12.2221
rhand -20.7718 17.525
rfingers 7.12502
rthumb 5.59466 -12.3811
lclavicle -3.57812e-014 0
lhumerus -41.7708 8.18594 75.9085
lradius 42.7788
lwrist 56.935
lhand -21.2525 66.1045
lfingers 7.12502
lthumb 5.13053 -96.0224
rfemur 0.71248 8.74409 20.1287
rtibia 4.77083e-015
rfoot -3.19836 -5.53
rtoes -15.5499
lfemur -37.7009 -0.790455 -5.23592
ltibia 33.555
lfoot -5.98604 9.99349
ltoes 17.6648
829
root 6.45064 18.1185 4.70373 82.7994 82.6378 78.3014
lowerback 8.55368 1.98626 1.01456
upperback -0.41661 2.69153 -1.32022
thorax -5.12097 1.28899 -2.2887
lowerneck -21.1766 5.02178 5.54885
upperneck 18.3882 7.18134 -8.15185
head 9.84242 2.83074 -2.70233
rclavicle -3.67752e-014 -5.56597e-015
rhumerus -32.2427 6.35334 -75.5333
rradius 46.8685
rwrist -12.2328
rhand -20.8169 17.4743
rfingers 7.12502
rthumb 5.55109 -12.433
lclavicle -3.67752e-014 -5.56597e-015
lhumerus -41.6884 8.10426 76.0148
lradius 43.0231
lwrist 57.4331
lhand -21.7142 66.2113
lfingers 7.12502
lthumb 4.6847 -96.1395
rfemur 0.644823 8.68444 20.0461
rtibia -4.77083e-015
rfoot -3.24256 -5.59021
rtoes -15.0489
lfemur -37.512 0.0133051 -5.75108
ltibia 34.6324
lfoot -8.35394 10.3919
ltoes 19.0359
830
root 6.4462 18.1158 4.68557 83.9743 82.6847 79.4175
lowerback 8.51997 1.93259 1.05304
upperback -0.414199 2.62552 -1.2786
thorax -5.10259 1.256 -2.25715
lowerneck -21.2784 4.94257 5.65286
upperneck 18.6556 7.12967 -8.42508
head 9.96816 2.77849 -2.82512
rclavicle -5.1684e-015 3.18055e-015
rhumerus -32.3405 6.54286 -75.5519
rradius 46.8855
rwrist -12.2716
rhand -20.958 17.3971
rfingers 7.12502
rthumb 5.41492 -12.5137
lclavicle -5.1684e-015 3.18055e-015
lhumerus -41.6093 8.05461 76.0748
lradius 43.176
lwrist 57.5667
lhand -21.6726 66.1317
lfingers 7.12502
lthumb 4.72493 -96.059
rfemur 0.597321 8.6049 19.9653
rtibia -3.18055e-015
rfoot -3.30193 -5.59378
rtoes -14.4963
lfemur -37.3697 0.831626 -6.31567
ltibia 35.8766
lfoot -10.4048 10.6808
ltoes 20.2701
831
root 6.4443 18.1071 4.66456 84.9626 82.8053 80.3739
lowerback 8.50426 1.89453 1.17604
upperback -0.409736 2.58977 -1.21604
thorax -5.08812 1.23586 -2.25574
lowerneck -21.3872 4.84298 5.55458
upperneck 18.8994 7.03448 -8.39431
head 10.0622 2.72516 -2.81398
rclavicle -2.99171e-014 5.56597e-015
rhumerus -32.4486 6.7213 -75.5422
rradius 46.866
rwrist -12.3345
rhand -21.0187 17.3927
rfingers 7.12502
rthumb 5.35625 -12.5196
lclavicle -2.99171e-014 5.56597e-015
lhumerus -41.4912 8.04099 76.1426
lradius 43.3014
lwrist 57.576
lhand -21.4576 66.0284
lfingers 7.12502
lthumb 4.93248 -95.951
rfemur 0.597918 8.5409 19.977
rtibia 7.95139e-015
rfoot -3.40728 -5.64966
rtoes -14.7313
lfemur -37.1648 1.67918 -6.87435
ltibia 37.3021
lfoot -12.2109 10.9801
ltoes 20.3134
832
root 6.44533 18.0937 4.63927 85.868 82.9482 81.2853
lowerback 8.47328 1.86648 1.3282
upperback -0.375379 2.5709 -1.14106
thorax -5.03236 1.22437 -2.2584
lowerneck -21.605 4.73343 5.17502
upperneck 19.3211 6.8947 -7.84949
head 10.2038 2.68293 -2.58075
rclavicle -2.85256e-014 -2.54444e-014
rhumerus -32.5399 6.81425 -75.4755
rradius 46.8375
rwrist -12.3199
rhand -20.8745 17.4218
rfingers 7.12502
rthumb 5.49556 -12.4869
lclavicle -2.85256e-014 -2.54444e-014
lhumerus -41.3865 8.04248 76.2471
lradius 43.4718
lwrist 57.4705
lhand -21.2935 66.0455
lfingers 7.12502
lthumb 5.091 -95.9644
rfemur 0.632886 8.48466 20.0194
rtibia -6.36111e-015
rfoot -3.57032 -5.74598
rtoes -15.2117
lfemur -36.8949 2.57995 -7.50636
ltibia 38.8911
lfoot -13.6483 11.0468
ltoes 20.0679
833
root 6.44722 18.0781 4.61203 86.5905 83.1477 81.9957
lowerback 8.42044 1.84009 1.49493
upperback -0.358716 2.557 -1.0239
thorax -4.98392 1.21517 -2.22557
lowerneck -21.9406 4.62706 4.72695
upperneck 20.023 6.74777 -7.10023
head 10.4589 2.65091 -2.26374
rclavicle -1.2921e-015 -6.36111e-015
rhumerus -32.6367 6.99949 -75.3909
rradius 46.775
rwrist -12.2561
rhand -20.7984 17.6027
rfingers 7.12502
rthumb 5.56904 -12.3042
lclavicle -1.2921e-015 -6.36111e-015
lhumerus -41.3766 7.90312 76.46
lradius 43.7624
lwrist 57.4954
lhand -21.3357 65.9908
lfingers 7.12502
lthumb 5.05018 -95.9107
rfemur 0.63846 8.45375 20.1268
rtibia 1.03368e-014
rfoot -3.65663 -5.81975
rtoes -15.9392
lfemur -36.6606 3.53916 -8.10882
ltibia 40.5915
lfoot -14.9086 10.7459
ltoes 19.9018
834
root 6.44922 18.062 4.58316 87.3655 83.4384 82.6986
lowerback 8.29876 1.79717 1.72043
upperback -0.361544 2.52729 -0.867829
thorax -4.91713 1.19721 -2.1811
lowerneck -22.0765 4.5465 4.60183
upperneck 20.4852 6.63705 -6.81347
head 10.6279 2.61618 -2.15922
rclavicle -7.05686e-015 1.35174e-014
rhumerus -32.6995 7.32819 -75.3349
rradius 46.6981
rwrist -12.2664
rhand -20.862 17.6094
rfingers 7.12502
rthumb 5.50758 -12.299
lclavicle -7.05686e-015 1.35174e-014
lhumerus -41.3892 7.68709 76.7158
lradius 44.135
lwrist 57.6756
lhand -21.4188 65.9271
lfingers 7.12502
lthumb 4.96997 -95.8488
rfemur 0.583313 8.42469 20.3173
rtibia 0
rfoot -3.64859 -5.9161
rtoes -16.6841
lfemur -36.4728 4.47569 -8.61599
ltibia 42.358
lfoot -16.0981 10.305
ltoes 19.219
835
root 6.45231 18.0474 4.55362 87.8846 83.7027 83.1419
lowerback 8.13795 1.77989 1.90298
upperback -0.362736 2.52623 -0.712338
thorax -4.82706 1.1951 -2.11513
lowerneck -21.8067 4.46769 4.74501
upperneck 20.4146 6.54563 -7.0365
head 10.5606 2.56761 -2.28059
rclavicle 1.78906e-015 1.98785e-014
rhumerus -32.7567 7.57239 -75.2439
rradius 46.5778
rwrist -12.2421
rhand -20.7997 17.3756
rfingers 7.12502
rthumb 5.56775 -12.5312
lclavicle 1.78906e-015 1.98785e-014
lhumerus -41.4028 7.4441 77.0018
lradius 44.5249
lwrist 57.9324
lhand -21.6448 66.0085
lfingers 7.12502
lthumb 4.75179 -95.9353
rfemur 0.525355 8.43195 20.466
rtibia -5.56597e-015
rfoot -3.67681 -6.01375
rtoes -16.9232
lfemur -36.2175 5.41079 -9.17591
ltibia 44.1454
lfoot -17.1214 9.81503
ltoes 18.2957
836
root 6.45683 18.0341 4.52282 87.6275 83.9624 82.8629
lowerback 8.03488 1.78558 2.07705
upperback -0.36791 2.55556 -0.557379
thorax -4.7726 1.20777 -2.05109
lowerneck -21.4362 4.37897 4.80598
upperneck 20.2987 6.44099 -7.15529
head 10.4499 2.52215 -2.35333
rclavicle -2.52457e-014 -2.38542e-015
rhumerus -32.839 7.79078 -75.1569
rradius 46.3581
rwrist -12.1661
rhand -20.736 17.4351
rfingers 7.12502
rthumb 5.62928 -12.4701
lclavicle -2.52457e-014 -2.38542e-015
lhumerus -41.475 7.15451 77.3039
lradius 44.9183
lwrist 58.1544
lhand -21.915 65.9457
lfingers 7.12502
lthumb 4.49081 -95.8781
rfemur -1.08205 8.50299 20.6465
rtibia 3.18231
rfoot -5.2632 -6.56049
rtoes -17.1466
lfemur -35.8166 6.40657 -9.7661
ltibia 45.9164
lfoot -18.1942 9.19224
ltoes 16.2038
837
root 6.46308 18.0222 4.48925 86.8417 84.207 82.0575
lowerback 7.92962 1.76854 2.22355
upperback -0.375217 2.55175 -0.400557
thorax -4.72202 1.20482 -1.96586
lowerneck -20.9653 4.4195 4.82588
upperneck 20.213 6.50547 -7.14741
head 10.3365 2.5684 -2.34805
rclavicle -2.90226e-014 -1.66979e-014
rhumerus -32.8516 8.04952 -75.1121
rradius 46.0701
rwrist -12.0599
rhand -20.738 17.6608
rfingers 7.12502
rthumb 5.62729 -12.2445
lclavicle -2.90226e-014 -1.66979e-014
lhumerus -41.6204 7.01332 77.5347
lradius 45.3091
lwrist 58.1891
lhand -21.9666 65.6944
lfingers 7.12502
lthumb 4.44102 -95.6279
rfemur -2.18467 8.62787 20.7971
rtibia 5.36923
rfoot -6.34984 -6.96485
rtoes -17.6365
lfemur -35.3186 7.39026 -10.3698
ltibia 47.6395
lfoot -19.2498 8.45217
ltoes 13.1843
838
root 6.47152 18.0088 4.45444 85.6384 84.309 80.8289
lowerback 7.79986 1.73697 2.1877
upperback -0.37865 2.50998 -0.257753
thorax -4.66242 1.18767 -1.78781
lowerneck -20.3085 4.58236 4.83388
upperneck 19.9992 6.75071 -7.16851
head 10.1564 2.70033 -2.32492
rclavicle -2.9122e-014 9.54166e-015
rhumerus -32.7642 8.29726 -75.0559
rradius 45.7653
rwrist -11.9325
rhand -20.7253 17.6726
rfingers 7.12502
rthumb 5.63953 -12.2323
lclavicle -2.9122e-014 9.54166e-015
lhumerus -41.8113 6.98488 77.7393
lradius 45.6708
lwrist 58.1261
lhand -21.9395 65.472
lfingers 7.12502
lthumb 4.46721 -95.4049
rfemur -3.08877 8.79642 20.7777
rtibia 7.14898
rfoot -7.22034 -7.32201
rtoes -18.1623
lfemur -34.7302 8.37705 -11.1285
ltibia 49.2884
lfoot -19.9212 7.80028
ltoes 9.80398
